<svg width="16" height="16" viewBox="0 0 16 16" fill="none" xmlns="http://www.w3.org/2000/svg">
<path fill-rule="evenodd" clip-rule="evenodd" d="M6.19297 2.22013C6.38064 2.31032 6.49999 2.50011 6.49999 2.70833V10.2917C6.49999 10.4999 6.38064 10.6897 6.19297 10.7799C6.0053 10.8701 5.78254 10.8447 5.61995 10.7146L3.05998 8.66667H1.08332C0.784169 8.66667 0.541656 8.42415 0.541656 8.125V4.875C0.541656 4.57584 0.784169 4.33333 1.08332 4.33333H3.05998L5.61995 2.28536C5.78254 2.15529 6.0053 2.12993 6.19297 2.22013ZM5.41666 3.83534L3.58837 5.29797C3.49232 5.37481 3.37299 5.41667 3.24999 5.41667H1.62499V7.58333H3.24999C3.37299 7.58333 3.49232 7.62519 3.58837 7.70203L5.41666 9.16466V3.83534Z" fill="#9E9E9E"/>
<path fill-rule="evenodd" clip-rule="evenodd" d="M9.94662 2.28734C10.1582 2.07584 10.5011 2.07589 10.7126 2.28746C11.8297 3.40481 12.4572 4.92006 12.4572 6.5C12.4572 8.07994 11.8297 9.59519 10.7126 10.7125C10.5011 10.9241 10.1582 10.9242 9.94662 10.7127C9.73505 10.5012 9.735 10.1582 9.9465 9.94662C10.8604 9.03243 11.3738 7.79267 11.3738 6.5C11.3738 5.20732 10.8604 3.96757 9.9465 3.05337C9.735 2.84181 9.73505 2.49884 9.94662 2.28734ZM8.03453 4.19943C8.2461 3.98792 8.58906 3.98798 8.80056 4.19954C9.40985 4.80901 9.75212 5.63551 9.75212 6.49729C9.75212 7.35907 9.40985 8.18558 8.80056 8.79504C8.58906 9.00661 8.2461 9.00666 8.03453 8.79516C7.82297 8.58365 7.82291 8.24069 8.03442 8.02912C8.4406 7.62281 8.66879 7.07181 8.66879 6.49729C8.66879 5.92277 8.4406 5.37177 8.03442 4.96546C7.82291 4.75389 7.82297 4.41093 8.03453 4.19943Z" fill="#9E9E9E"/>
</svg>
